<svg width="304" height="55" xmlns="http://www.w3.org/2000/svg">
 <g>
  <path id="svg_4" d="m23.433692,51.306095c0,2 1.2,3.2 3,3.2c1.9,0 3,-1.2 3,-3.2l0,-20.4c0,-10.4 -7.1,-14 -12.8,-14c-3.7,0 -7.5,1.4 -10.2,4.8l-0.1,-0.1l0,-17.6c0,-2 -1.2,-3.2 -3,-3.2c-1.9,0 -3,1.2 -3,3.2l0,47.3c0,2 1.2,3.2 3,3.2c1.9,0 3,-1.2 3,-3.2l0,-20c0,-6.4 4.5,-9.1 8.5,-9.1s8.5,2.6 8.5,9.1l0,20l0.1,0z" fill="#2E2F64"/>
  <path id="svg_5" d="m31.733692,35.806095c0,9.7 5.8,18.8 16.2,18.8s16.2,-9.1 16.2,-18.8s-5.8,-18.8 -16.2,-18.8s-16.2,9 -16.2,18.8zm6.1,0c0,-6.2 2.6,-13.5 10.1,-13.5c7.5,0 10.1,7.3 10.1,13.5c0,6.2 -2.6,13.5 -10.1,13.5c-7.5,0 -10.1,-7.3 -10.1,-13.5z" fill="#2E2F64"/>
  <path id="svg_6" d="m88.133692,51.306095c0,2 1.2,3.2 3,3.2c1.9,0 3,-1.2 3,-3.2l0,-20.6c0,-5.3 2.9,-8.5 7.8,-8.5c5,0 7.9,3.2 7.9,8.5l0,20.6c0,2 1.2,3.2 3,3.2c1.9,0 3,-1.2 3,-3.2l0,-20.4c0,-10.4 -7.1,-14 -12.8,-14c-5.3,0 -8.6,2.4 -11.3,6.2c-2.8,-4.7 -6.5,-6.2 -10.1,-6.2c-5.5,0 -7.8,2.6 -9.3,4.5l-0.1,-0.1l0,-1.1c0,-2 -1.2,-3.2 -3,-3.2c-1.9,0 -3,1.2 -3,3.2l0,31.1c0,2 1.2,3.2 3,3.2c1.9,0 3,-1.2 3,-3.2l0,-20.6c0,-5.3 2.9,-8.5 7.8,-8.5c5,0 7.9,3.2 7.9,8.5l0,20.6l0.2,0z" fill="#2E2F64"/>
  <path id="svg_7" d="m146.633692,38.106095c2.6,0 3.4,-1.1 3.4,-3.2c0,-8.8 -5.8,-17.9 -15.8,-17.9c-10.3,0 -16.5,8.8 -16.5,18.8c0,9.7 5.1,18.8 16.9,18.8c7.2,0 14.7,-4.6 14.7,-7.5c0,-1.7 -1.1,-2.7 -2.2,-2.7c-2.3,0 -4.4,5 -12.4,5c-6.8,0 -10.9,-4.9 -10.9,-11.2l22.8,0l0,-0.1zm-22.9,-4.5c0.2,-5.6 2.9,-11.6 10.4,-11.3c6.7,0 9.7,6.1 9.7,11.3l-20.1,0z" fill="#2E2F64"/>
  <path id="svg_8" d="m151.033692,50.606095c0.8,2.3 1.8,3.2 3.5,3.2c1.7,0 2.7,-0.8 3.5,-3.2l7.9,-24.6l0.1,0l7.9,24.6c0.8,2.3 1.8,3.2 3.5,3.2c1.7,0 2.7,-0.8 3.5,-3.2l10.1,-29.2c0.3,-0.9 0.5,-1.7 0.5,-2.3c0,-1.2 -0.8,-2.7 -2.9,-2.7c-1.3,0 -2.6,0.5 -3.4,3.1l-7.9,24.9l-0.1,0l-7.7,-24c-0.8,-2.6 -1.4,-4 -3.6,-4c-2.2,0 -2.8,1.4 -3.6,4l-7.7,24l-0.1,0l-7.8,-24.9c-0.8,-2.6 -2.1,-3.1 -3.4,-3.1c-2.1,0 -2.9,1.5 -2.9,2.7c0,0.6 0.2,1.4 0.5,2.3l10.1,29.2z" fill="#39D1E5"/>
  <path id="svg_9" d="m191.233692,35.106095c0,9.7 5.8,18.7 16.2,18.7s16.2,-9 16.2,-18.7c0,-9.7 -5.8,-18.7 -16.2,-18.7s-16.2,9 -16.2,18.7zm6.1,0c0,-6.2 2.6,-13.4 10.1,-13.4s10.1,7.3 10.1,13.4s-2.6,13.4 -10.1,13.4s-10.1,-7.3 -10.1,-13.4z" fill="#4DC7E9"/>
  <path id="svg_10" d="m227.233692,50.506095c0,2 1.2,3.2 3,3.2c1.9,0 3,-1.2 3,-3.2l0,-17.4c0,-7.1 4.4,-9.7 8,-10.4c2.6,-0.5 3.8,-1.6 3.8,-3.3c0,-1.7 -1.2,-3.1 -3.4,-3.1c-3.5,0 -6.9,3.5 -8.3,6.3l0,0l0,-3c0,-2 -1.2,-3.2 -3,-3.2c-1.9,0 -3,1.2 -3,3.2l0,30.9l-0.1,0z" fill="#4DC7E9"/>
  <path id="svg_11" d="m247.633692,50.506095c0,2 1.2,3.2 3,3.2c1.9,0 3,-1.2 3,-3.2l0,-14.5l15.3,15.9c1.5,1.4 2.1,1.9 3.5,1.9c1.3,0 2.6,-1 2.6,-2.4c0,-1.2 -0.3,-1.9 -1.5,-3.1l-16,-15.7l13.8,-10.8c1.2,-0.9 1.5,-1.7 1.5,-2.6c0,-1.5 -1,-2.7 -2.6,-2.7c-1,0 -2.2,0.8 -3.5,1.9l-13.3,11l0,-25.8c0,-2 -1.2,-3.2 -3,-3.2c-1.9,0 -3,1.2 -3,3.2l0,46.9l0.2,0z" fill="#4DC7E9"/>
  <path id="svg_12" d="m277.433692,26.706095c0,10.2 19.6,9.7 19.6,16.9c0,2.5 -2.7,4.9 -7.1,4.9c-6.6,0 -8.8,-4.5 -11.5,-4.5c-1.3,0 -2.5,1.1 -2.5,2.7c0,3.1 6.1,6.9 13.8,6.9c6.8,0 13.4,-3.6 13.4,-11.3c0,-10.6 -19.6,-9.9 -19.6,-16.3c0,-3.1 3,-4.6 6.4,-4.6c5.8,0 6.8,3.7 9.5,3.7c1.9,0 2.8,-1.2 2.8,-2.5c0,-3.8 -7.2,-6.4 -12.2,-6.4c-6.2,0.2 -12.6,3.8 -12.6,10.5z" fill="#4DC7E9"/>
 </g>
</svg>