<?xml version="1.0" encoding="UTF-8"?>
<svg width="74px" height="90px" viewBox="0 0 74 90" version="1.1" xmlns="http://www.w3.org/2000/svg" xmlns:xlink="http://www.w3.org/1999/xlink">
    <!-- Generator: Sketch 58 (84663) - https://sketch.com -->
    <title>noun_cleaner_1753623 copy 2</title>
    <desc>Created with Sketch.</desc>
    <g id="✅-Klantenservice" stroke="none" stroke-width="1" fill="none" fill-rule="evenodd">
        <g id="Klantenservice" transform="translate(-188.000000, -735.000000)" fill="#0D0220" fill-rule="nonzero">
            <g id="FAQ-blok" transform="translate(0.000000, 489.000000)">
                <g id="noun_cleaner_1753623-copy-2" transform="translate(188.000000, 246.000000)">
                    <path d="M73.7234043,88.5085855 C73.7234043,87.684904 73.04655,87.0171781 72.211608,87.0171781 C71.376666,87.0171781 70.6998118,86.3494523 70.6998118,85.5257707 L70.6998118,78.0687338 C70.6998118,75.5976891 68.6692492,73.5945116 66.1644232,73.5945116 L64.652627,73.5945116 L64.652627,22.8866603 L66.1644232,22.8866603 L66.1644232,19.9038455 L64.652627,19.9038455 L64.652627,12.4468085 L61.6290346,12.4468085 L61.6290346,19.9038455 L60.1172383,19.9038455 C59.6509149,19.9039863 59.2107537,20.1164208 58.9244311,20.4795287 L49.8763308,31.9633656 L43.3514183,17.7949954 C43.106094,17.2628664 42.5682547,16.9211926 41.9756838,16.9210307 L26.8577217,16.9210307 C26.3151735,16.8694792 25.8015341,17.1714531 25.5893246,17.6667344 L25.5621123,17.6488375 L16.491335,32.5629114 C16.1567516,33.1141796 16.2176672,33.8148772 16.6425147,34.3018924 L24.9679764,43.8841849 L22.5793384,47.4173291 L25.0949673,49.0727913 L28.1185597,44.5985691 C28.2823371,44.3504351 28.3666217,44.0594177 28.3604471,43.7633809 L28.3604471,43.8081232 L25.3459255,88.4101526 C25.31828,88.8224589 25.4652679,89.2276014 25.7518362,89.5289633 C26.0384045,89.8303252 26.4388665,90.0008939 26.8577217,89.9999965 L44.9992762,89.9999965 L44.9992762,87.0171781 L40.5666897,87.0171781 L43.48748,43.7663638 L43.48748,32.7567944 L46.2888384,31.3757511 L48.1589303,35.4353621 C48.3779345,35.9102553 48.8325695,36.2377251 49.3577847,36.2988869 C49.8825913,36.3559955 50.4002055,36.1423862 50.7274721,35.7336435 L60.8565067,22.8866603 L61.6290346,22.8866603 L61.6290346,73.5945116 L60.1172383,73.5945116 C57.6124124,73.5945116 55.5818497,75.5976891 55.5818497,78.0687338 L55.5818497,85.5257707 C55.5818497,87.9968154 57.6124124,89.9999965 60.1172383,89.9999965 L72.211608,89.9999965 C73.04655,89.9999965 73.7234043,89.3322671 73.7234043,88.5085855 Z M25.8735423,22.9284197 L26.425348,27.5517826 L24.9271579,29.7695054 L22.6322513,28.2557269 L25.8735423,22.9284197 Z M28.005175,42.7954575 L19.6449419,33.1773713 L21.0751012,30.8254218 L24.5068786,33.0819212 C24.8404567,33.3014985 25.2488013,33.381332 25.6420541,33.3038541 C26.0353069,33.2263761 26.3812439,32.9979354 26.6037399,32.6688013 L26.9695946,32.1259291 L28.3302112,43.5158073 C28.2893343,43.2512728 28.177065,43.0024601 28.005175,42.7954575 L28.005175,42.7954575 Z M37.5370501,87.0171781 L34.5421818,87.0171781 L37.4402952,51.3427133 L34.4167027,51.1040881 L31.5095186,87.0171781 L28.4738318,87.0171781 L31.2963553,45.2577711 L40.3595736,45.2577711 L37.5370501,87.0171781 Z M31.2253009,42.2749564 L29.5623251,28.2900292 L29.6318677,28.1886135 L29.5441835,28.1304487 L28.5584924,19.9038455 L40.4638876,19.9038455 L40.4638876,42.2749564 L31.2253009,42.2749564 Z M43.48748,29.4220075 L43.48748,25.2967746 L45.0355593,28.6584069 L43.48748,29.4220075 Z M58.6054421,78.0687338 C58.6054421,77.2450522 59.2822964,76.5773264 60.1172383,76.5773264 L66.1644232,76.5773264 C66.9993652,76.5773264 67.6762194,77.2450522 67.6762194,78.0687338 L67.6762194,79.5601412 L58.6054421,79.5601412 L58.6054421,78.0687338 Z M60.1172383,87.0171781 C59.2822964,87.0171781 58.6054421,86.3494523 58.6054421,85.5257707 L58.6054421,82.542956 L67.6762194,82.542956 L67.6762194,85.5257707 C67.6762055,86.0337577 67.76362,86.5380598 67.9347366,87.0171781 L60.1172383,87.0171781 Z" id="Shape"></path>
                    <path d="M26.8085106,4.59574468 L26.8085106,7.65957447 L29.787234,7.65957447 L29.787234,10.5962553 C29.7896971,13.2035873 31.84403,15.3166155 34.3789362,15.3191489 L35.6210638,15.3191489 C38.15597,15.3166155 40.2103029,13.2035873 40.212766,10.5962553 L40.212766,4.72289362 C40.2103029,2.1155616 38.15597,0.00253344181 35.6210638,6.21724894e-15 L34.3789362,6.21724894e-15 C31.8948196,0.0048988765 29.8652371,2.04155302 29.7991489,4.59574468 L26.8085106,4.59574468 Z M34.3789362,3.06382979 L35.6210638,3.06382979 C36.4580093,3.06968183 37.1496263,3.73701523 37.2087234,4.59574468 L32.7912766,4.59574468 C32.8503737,3.73701523 33.5419907,3.06968183 34.3789362,3.06382979 Z M32.7659574,7.65957447 L37.2340426,7.65957447 L37.2340426,10.5962553 C37.2332215,11.5121809 36.511547,12.2544746 35.6210638,12.2553191 L34.3789362,12.2553191 C33.488453,12.2544746 32.7667785,11.5121809 32.7659574,10.5962553 L32.7659574,7.65957447 Z" id="Shape"></path>
                    <rect id="Rectangle" x="7.65957447" y="68.9361702" width="2.87234043" height="2.87234043"></rect>
                    <path d="M16.1994254,89.9999909 C16.9670824,90.0026884 17.6079268,89.4021236 17.6716381,88.6203033 L19.1438509,70.565623 C19.1780975,70.1454326 19.0382445,69.729838 18.7583525,69.4200554 C18.4784604,69.1102727 18.0842168,68.934733 17.6716381,68.9361791 L13.2549999,68.9361791 L13.2549999,71.9453014 L16.0713429,71.9453014 L15.8254834,74.9544148 L3.32345282,74.9544148 L3.07759329,71.9453014 L4.42172352,71.9453014 L4.42172352,68.9361791 L1.47729805,68.9361791 C1.06471937,68.934733 0.670475777,69.1102727 0.390583704,69.4200554 C0.11069163,69.729838 -0.0291613764,70.1454326 0.00508531486,70.565623 L1.47729805,88.6203033 C1.54100939,89.4021236 2.18185376,90.0026884 2.94951078,89.9999909 L16.1994254,89.9999909 Z M15.581096,77.9635282 L14.8449897,86.9908684 L4.3039465,86.9908684 L3.56784013,77.9635282 L15.581096,77.9635282 Z" id="Shape"></path>
                </g>
            </g>
        </g>
    </g>
</svg>