<svg xmlns="http://www.w3.org/2000/svg" data-name="Layer 1" viewBox="0 0 128 160" x="0px" y="0px"><path d="M93,29A29,29,0,1,0,64,58,29,29,0,0,0,93,29ZM64,54A25,25,0,1,1,89,29,25,25,0,0,1,64,54Z"/><path d="M104.87,79a2.71,2.71,0,0,0-2.25-1.76l-5-.76-2.24-4.76a2.57,2.57,0,0,0-4.81,0l-2.24,4.76-5,.76A2.71,2.71,0,0,0,81.13,79a2.75,2.75,0,0,0,.75,2.8l3.65,3.73-.87,5.3a2.84,2.84,0,0,0,.57,2.35,2.65,2.65,0,0,0,3.33.46L93,91.16l4.42,2.43a3,3,0,0,0,1.46.4,2.46,2.46,0,0,0,1.88-.86,2.84,2.84,0,0,0,.57-2.35l-.87-5.3,3.66-3.74A2.75,2.75,0,0,0,104.87,79Zm-8.68,5.18.76,4.63L93,86.6l-3.95,2.17.76-4.62L86.5,80.77l4.56-.7L93,76l1.94,4.12,4.56.7Z"/><path d="M42,58h6.22a33.16,33.16,0,0,1-5.77-4H42C24.38,54,10,68.65,10,86.66V94h4V86.66C14,70.86,26.58,58,42,58Z"/><path d="M118,121.28V86.66C118,68.65,103.63,54,86,54H85.5a33.2,33.2,0,0,1-5.77,4H86c15.46,0,28,12.86,28,28.66v34.62a2.67,2.67,0,0,1-2.62,2.72H68.7a10.57,10.57,0,0,1-2,4h44.69A6.68,6.68,0,0,0,118,121.28Z"/><path d="M61.35,61.88a32.89,32.89,0,0,1-4-.55l-3.28,22a13.86,13.86,0,0,1,3.23,5.44Z"/><path d="M76.29,106.18a2,2,0,0,0,.69-1.8L70.93,61.26a32.92,32.92,0,0,1-4,.6l5.89,42h0a10.26,10.26,0,0,1-.71,5.85Z"/><path d="M62.33,99.34H53.89a19.64,19.64,0,0,0,.59-4.46c-.26-2.44-.86-8.15-5.32-10.2a6.85,6.85,0,0,0-7.33.95c-2.68,2.23-2.53,5.33-2.45,7,0,.26,0,2,0,2a80.55,80.55,0,0,1-4,7l-.41.68V100a2,2,0,0,0-2-2H23a2,2,0,0,0-2,2v26a2,2,0,0,0,2,2H33a2,2,0,0,0,1.91-1.45c.22,0,1.17,0,1.38,0l0,0a8.56,8.56,0,0,0,2.5,1.24,4,4,0,0,0,1.07.15H58.37A6.65,6.65,0,0,0,65,120.51a6.6,6.6,0,0,0,1.7-4.43,6.71,6.71,0,0,0-.12-1.25,6.58,6.58,0,0,0,1.36-4,6.7,6.7,0,0,0-.15-1.42A6.58,6.58,0,0,0,69,105.58C69,102,66.13,99.34,62.33,99.34ZM31,124H25V102h6Zm31.33-15.79h-.66a2.63,2.63,0,0,1-.41,5.24H60.14a2.64,2.64,0,0,1-.11,5.27H58.49a2.64,2.64,0,0,1-.12,5.27H39.9c-.93-.26-1.61-1-2.5-1.35a1.8,1.8,0,0,0-.63-.09,14.06,14.06,0,0,1-1.77,0V107.35s2.63-1.61,2.71-1.79c.34-.75,5.7-8.9,5.7-10.51V93.39c0-1.64-.43-3.5,1-4.68a2.83,2.83,0,0,1,3.11-.4c2.27,1,2.78,4.81,3,7,.12,1.16-1.54,7.6-1.86,8H62.33c1.48,0,2.67.77,2.67,2.23A2.65,2.65,0,0,1,62.33,108.21Z"/><circle cx="2" cy="113" r="2"/><path d="M2,107H15a2,2,0,0,0,0-4H2a2,2,0,0,0,0,4Z"/><path d="M2,123H15a2,2,0,0,0,0-4H2a2,2,0,0,0,0,4Z"/><path d="M15,111H10a2,2,0,0,0,0,4h5a2,2,0,0,0,0-4Z"/></svg>