<?xml version="1.0" encoding="UTF-8"?>
<svg width="85px" height="69px" viewBox="0 0 85 69" version="1.1" xmlns="http://www.w3.org/2000/svg" xmlns:xlink="http://www.w3.org/1999/xlink">
    <!-- Generator: Sketch 58 (84663) - https://sketch.com -->
    <title>noun_Home_1706892</title>
    <desc>Created with Sketch.</desc>
    <g id="✅-Klantenservice" stroke="none" stroke-width="1" fill="none" fill-rule="evenodd">
        <g id="Klantenservice" transform="translate(-621.000000, -1062.000000)" fill="#000000" fill-rule="nonzero">
            <g id="FAQ-blok" transform="translate(0.000000, 489.000000)">
                <g id="noun_Home_1706892" transform="translate(621.000000, 573.000000)">
                    <g id="Group">
                        <path d="M42.5572443,0.384722769 C43.0031012,0.394276615 43.4190806,0.541862308 43.8189631,0.815972769 L84.1939631,32.6621585 C85.1228962,33.4074646 85.2546887,34.7829 84.5591974,35.6809615 C83.8737149,36.5659662 82.4156356,36.7076815 81.5377131,36.0126923 L42.4908381,5.227992 L3.44396306,36.0126923 C2.56604056,36.7076815 1.14805994,36.5606585 0.455681812,35.6809615 C-0.2315009,34.8078462 -0.15761465,33.35736 0.787713062,32.6621585 L15.9283381,20.7198189 L15.9283381,2.50779969 C15.9284554,1.33530525 16.8797816,0.384840001 18.0533381,0.384722769 L26.5533381,0.384722769 C27.7268945,0.384840001 28.6782207,1.33530525 28.6783381,2.50779969 L28.6783381,10.6683766 L41.1627131,0.815972769 C41.6356531,0.504697846 42.1113874,0.375434308 42.5572443,0.384722769 L42.5572443,0.384722769 Z M24.4283381,4.63087662 L20.1783381,4.63087662 L20.1783381,17.3693382 L24.4283381,14.0188574 L24.4283381,4.63087662 Z M69.0533381,28.946742 L73.3033381,32.2972015 L73.3033381,66.2000862 C73.3033381,67.3725806 72.3518946,68.3231631 71.1783381,68.3231631 L53.1158381,68.3231631 C51.9422816,68.3231631 50.9909553,67.3725806 50.9908381,66.2000862 L50.9908381,47.0925 L33.9908381,47.0925 L33.9908381,66.2000862 C33.9907208,67.3725806 33.0393946,68.3231631 31.8658381,68.3231631 L13.8033381,68.3231631 C12.6297816,68.3231631 11.6783381,67.3725806 11.6783381,66.2000862 L11.6783381,32.2972015 L15.9283381,28.946742 L15.9283381,64.0770092 L29.7408381,64.0770092 L29.7408381,44.9694231 C29.7409553,43.7969286 30.6922816,42.8464633 31.8658381,42.8463462 L53.1158381,42.8463462 C54.2893946,42.8464633 55.2407208,43.7969286 55.2408381,44.9694231 L55.2408381,64.0770092 L69.0533381,64.0770092 L69.0533381,28.946742 L69.0533381,28.946742 Z" id="Shape"></path>
                    </g>
                </g>
            </g>
        </g>
    </g>
</svg>