<svg width="73" height="71" viewBox="0 0 73 71" fill="none" xmlns="http://www.w3.org/2000/svg">
<path fill-rule="evenodd" clip-rule="evenodd" d="M73 22.2367V21.7723C73 17.8713 69.9351 14.8062 65.9415 14.9919H64.4555H59.0687H56.5611V8.30439C56.5611 5.0535 55.5394 2.73144 53.6819 1.33821C50.7099 -0.890971 46.6234 0.3165 46.4377 0.409382C45.6947 0.595147 45.2303 1.24532 45.2303 1.98838V10.0692C45.2303 15.8421 38.5733 17.9359 37.9339 18.137C37.9149 18.1429 37.9012 18.1472 37.8931 18.1499H37.8003C37.1501 17.4997 36.3143 17.0353 35.2926 17.0353H28.7913C26.9338 17.0353 25.4478 18.5215 25.4478 20.3791V41.1848C25.4478 43.0424 26.9338 44.5285 28.7913 44.5285H35.2926C36.1285 44.5285 36.8715 44.2499 37.4288 43.7855C38.6361 44.9929 40.4008 45.736 42.2583 45.736H48.5738H49.2239H59.0687H61.3906H62.1336C66.6845 45.736 69.7494 43.2282 70.3066 38.9556L73 22.2367ZM14.4885 56.789V69.5139C14.4885 70.1641 14.8601 70.8142 15.6031 70.9071C15.7888 71 16.0674 71 16.2532 71C16.7176 71 17.1819 70.8142 17.4606 70.5356L32.042 56.6032H59.3473C63.341 56.6032 67.056 54.0954 68.542 50.3801C68.9135 49.4513 68.4491 48.5225 67.6132 48.1509C66.6845 47.7794 65.7557 48.2438 65.3842 49.0798C64.3626 51.4947 61.9478 53.1666 59.3473 53.1666H31.299C30.8346 53.1666 30.3702 53.3523 30.0916 53.631L17.9249 65.3342V54.9313C17.9249 54.0025 17.1819 53.2595 16.2532 53.2595H9.84478C6.31552 53.2595 3.43639 50.3801 3.43639 46.8506V16.6638C3.43639 13.1343 6.31552 10.2549 9.84478 10.2549H40.215C41.1438 10.2549 41.8868 9.51186 41.8868 8.58303C41.8868 7.65421 41.1438 6.91115 40.215 6.91115H9.84478C4.45802 6.91115 0 11.3695 0 16.7567V46.9435C0 52.3306 4.45802 56.789 9.84478 56.789H14.4885ZM35.3855 20.2862H28.9771V41.0919H35.3855V20.2862ZM66.0343 18.1499C68.0776 18.1499 69.6565 19.7289 69.6565 21.7723L67.3346 38.3983V38.4912C67.2417 39.42 66.8702 42.2993 62.5051 42.2993H61.7621H59.4402H49.5954H48.9453H42.6298C40.5865 42.2993 39.0076 40.6275 39.0076 38.6769V21.3079H39.1005C39.472 21.215 48.8524 18.5214 48.8524 9.97627V3.28874C49.6883 3.19585 50.8957 3.28874 51.8244 3.93891C52.8461 4.58909 53.3104 6.07521 53.3104 8.11862V16.478C53.3104 17.4069 54.0534 18.1499 54.9822 18.1499H59.1616H64.5483H66.0343Z" fill="black"/>
</svg>
