<svg width="97" height="80" viewBox="0 0 97 80" fill="none" xmlns="http://www.w3.org/2000/svg">
<path fill-rule="evenodd" clip-rule="evenodd" d="M63.7171 24.5277L49.9877 20.4123C48.9577 20.1046 47.8984 19.9969 46.8483 20.0354V20H30.1612L0.570068 10.1739L0.65937 51.7215L9.1538 55.9646L14.1839 43.6785L21.5313 46.6154L23.4359 41.8585L26.195 44.6154L23.6207 47.1877C22.7261 48.0816 22.2134 49.3185 22.2134 50.5831C22.2134 53.1723 24.2796 55.2769 26.8494 55.3677C26.9387 57.8769 28.9572 59.8939 31.4684 59.9831C31.5577 62.4923 33.5762 64.5092 36.0875 64.5985C36.1798 67.1662 38.2846 69.2308 40.8759 69.2308C42.1415 69.2308 43.3794 68.7185 44.274 67.8246L46.8483 65.2523L47.883 66.2862C48.7775 67.18 50.0154 67.6923 51.2811 67.6923C53.8723 67.6923 55.9786 65.6277 56.0695 63.06C58.5807 62.9708 60.5992 60.9539 60.6885 58.4446C63.1997 58.3554 65.2183 56.3385 65.3076 53.8292C67.8773 53.7369 69.9435 51.6339 69.9435 49.0446C69.9435 48.8592 69.918 48.676 69.8924 48.4922L69.8924 48.4921L69.8789 48.3939L72.0883 46.1862L73.8744 49.7554L83.5451 44.9231L89.3897 56.0723L96.1181 51.5923V11.8292L63.7171 24.5277ZM7.55869 51.7277L3.73566 49.8169L3.65867 14.4416L20.5305 20.0446L7.55869 51.7277ZM15.3479 40.8308L19.8161 42.6154L27.8733 22.4831L23.459 21.0169L15.3479 40.8308ZM25.2928 50.5831C25.2928 50.1292 25.476 49.6846 25.7978 49.3631L28.5045 46.6585C28.8263 46.3369 29.2713 46.1539 29.7255 46.1539C30.677 46.1539 31.4515 46.9277 31.4515 47.8785C31.4515 48.3323 31.2683 48.7769 30.9465 49.0985L28.2397 51.8031C27.9179 52.1246 27.4729 52.3077 27.0187 52.3077C26.0672 52.3077 25.2928 51.5339 25.2928 50.5831ZM30.4168 53.9785C30.095 54.3 29.9118 54.7446 29.9118 55.1985C29.9118 56.1492 30.6863 56.9231 31.6378 56.9231C32.092 56.9231 32.537 56.74 32.8587 56.4185L35.5655 53.7139C35.8873 53.3923 36.0705 52.9477 36.0705 52.4939C36.0705 51.5431 35.2961 50.7692 34.3445 50.7692C33.8903 50.7692 33.4454 50.9523 33.1236 51.2739L30.4168 53.9785ZM34.5308 59.8139C34.5308 59.36 34.7141 58.9154 35.0359 58.5939L37.7426 55.8892C38.0644 55.5677 38.5094 55.3846 38.9636 55.3846C39.9151 55.3846 40.6896 56.1585 40.6896 57.1092C40.6896 57.5631 40.5064 58.0077 40.1846 58.3292L37.4778 61.0339C37.156 61.3554 36.711 61.5385 36.2568 61.5385C35.3053 61.5385 34.5308 60.7646 34.5308 59.8139ZM42.0968 65.6492L44.8036 62.9446C45.1254 62.6231 45.3086 62.1785 45.3086 61.7246C45.3086 60.7739 44.5342 60 43.5826 60C43.1284 60 42.6835 60.1831 42.3617 60.5046L39.6549 63.2092C39.3331 63.5308 39.1499 63.9754 39.1499 64.4292C39.1499 65.38 39.9244 66.1539 40.8759 66.1539C41.3301 66.1539 41.7751 65.9708 42.0968 65.6492ZM65.1382 50.7692C64.684 50.7692 64.239 50.5862 63.9172 50.2646L51.0162 37.3739L48.8391 39.5492L61.7401 52.44C62.0619 52.7616 62.2451 53.2062 62.2451 53.66C62.2451 54.6108 61.4707 55.3846 60.5191 55.3846C60.0649 55.3846 59.62 55.2016 59.2982 54.88L46.3972 41.9892L44.2201 44.1646L57.1211 57.0554C57.4429 57.3769 57.6261 57.8216 57.6261 58.2754C57.6261 59.2262 56.8516 60 55.9001 60C55.4459 60 55.0009 59.8169 54.6791 59.4954L41.7781 46.6046L39.601 48.78L52.502 61.6708C52.8238 61.9923 53.007 62.4369 53.007 62.8908C53.007 63.8416 52.2326 64.6154 51.2811 64.6154C50.8268 64.6154 50.3819 64.4323 50.0601 64.1108L48.3233 62.3754L48.3309 62.3225C48.3594 62.1247 48.388 61.9266 48.388 61.7246C48.388 59.1354 46.3217 57.0308 43.752 56.94C43.6627 54.4308 41.6442 52.4139 39.133 52.3246C39.0437 49.8154 37.0251 47.7985 34.5139 47.7092C34.4215 45.1416 32.3168 43.0769 29.7255 43.0769C29.5399 43.0769 29.3565 43.1024 29.1724 43.128L29.0742 43.1416L24.6784 38.7492L30.9542 23.0769H40.0521L34.3984 28.7262C33.49 29.6323 32.9912 30.8385 32.9912 32.1216C32.9912 34.7692 35.1467 36.9231 37.7965 36.9231C39.0621 36.9231 40.3 36.4108 41.1946 35.5169L45.2732 31.44C46.1077 30.6092 47.5781 30.5769 48.4465 31.3723L52.0463 34.6692C53.2426 35.7646 54.5714 36.6754 55.994 37.3892L66.3592 47.8246C66.681 48.1462 66.8642 48.5908 66.8642 49.0446C66.8642 49.9954 66.0897 50.7692 65.1382 50.7692ZM62.0758 39.1446L68.4039 45.5169L70.6349 43.2877L62.704 27.4369L49.1024 23.36C46.759 22.6585 44.1693 23.3139 42.4448 25.0369L36.5755 30.9016C36.2491 31.2277 36.0705 31.66 36.0705 32.1216C36.0705 33.0723 36.845 33.8462 37.7965 33.8462C38.2507 33.8462 38.6957 33.6616 39.019 33.3416L43.0976 29.2662C45.0484 27.3139 48.4958 27.24 50.5281 29.1046L54.1279 32.4C56.77 34.82 60.2004 36.1539 63.7848 36.1539V39.2308C63.2105 39.2308 62.6408 39.1985 62.0758 39.1446ZM75.2508 45.6277L65.9157 26.9708L72.7334 24.2985L82.1163 42.1969L75.2508 45.6277ZM90.5291 51.6185L93.0388 49.9462V16.3416L75.6173 23.1692L90.5291 51.6185Z" fill="black"/>
<path d="M18.9917 67.1967L21.1691 65.021L23.3465 67.1967L21.1691 69.3723L18.9917 67.1967Z" fill="black"/>
<path d="M24.8662 72.4018L26.5777 69.8439L29.1363 71.5532L27.4248 74.1111L24.8662 72.4018Z" fill="black"/>
<path d="M31.6436 76.3653L32.8223 73.5228L35.6671 74.7006L34.4883 77.5431L31.6436 76.3653Z" fill="black"/>
<path d="M39.0671 78.9343L39.6685 75.9182L42.687 76.5192L42.0856 79.5352L39.0671 78.9343Z" fill="black"/>
<path d="M67.6372 8.44397L69.3487 5.88612L71.9073 7.59542L70.1958 10.1533L67.6372 8.44397Z" fill="black"/>
<path d="M61.106 5.30042L62.2847 2.45795L65.1295 3.6358L63.9507 6.47826L61.106 5.30042Z" fill="black"/>
<path d="M54.0889 3.48724L54.689 0.469397L57.7078 1.06879L57.1076 4.08664L54.0889 3.48724Z" fill="black"/>
<path d="M77.642 4.61536H74.5627V12.3077H66.8643V15.3846H77.642V4.61536Z" fill="black"/>
<path d="M22.2134 58.4615H12.9753V67.6923H16.0547V61.5385H22.2134V58.4615Z" fill="black"/>
<path d="M48.3879 3.07692H49.9276V0H48.3879C38.2553 0 28.5876 3.79077 21.1648 10.6738L23.2603 12.9292C30.1119 6.57538 39.0344 3.07692 48.3879 3.07692Z" fill="black"/>
<path d="M48.3881 76.9231H46.8484V80H48.3881C62.4623 80 75.2463 72.8231 82.586 60.8016L79.9577 59.2C73.1816 70.2969 61.3799 76.9231 48.3881 76.9231Z" fill="black"/>
</svg>
