<?xml version="1.0" encoding="UTF-8"?>
<svg width="74px" height="74px" viewBox="0 0 74 74" version="1.1" xmlns="http://www.w3.org/2000/svg" xmlns:xlink="http://www.w3.org/1999/xlink">
    <!-- Generator: Sketch 58 (84663) - https://sketch.com -->
    <title>noun_account_2844260</title>
    <desc>Created with Sketch.</desc>
    <g id="✅-Klantenservice" stroke="none" stroke-width="1" fill="none" fill-rule="evenodd">
        <g id="Klantenservice" transform="translate(-1055.000000, -1061.000000)" fill="#000000" fill-rule="nonzero">
            <g id="FAQ-blok" transform="translate(0.000000, 489.000000)">
                <g id="noun_account_2844260" transform="translate(1055.000000, 572.000000)">
                    <path d="M37,0 C16.5370311,0 0,16.5359671 0,36.9976194 C0,57.2712006 16.3989447,74 37,74 C57.5177273,74 74,57.3664265 74,36.9976194 C74,16.5383477 57.4629689,0 37,0 Z M36.9952384,2.77107193 L37,2.77107193 C55.8702143,2.77107193 71.2287498,18.1286192 71.2287498,36.9976194 C71.2287498,43.8991121 69.1741201,50.5458757 65.3648414,56.1689615 L64.7791648,57.033136 L64.0673058,56.266568 C58.9033524,50.7125209 52.4394827,47.1629777 45.6018274,45.5346159 L44.0447848,45.1632351 L45.2447075,44.1038476 C47.8278747,41.8160468 49.4658645,38.4950457 49.4658645,34.7812379 L49.4658645,30.3508557 C49.4658645,23.4707888 43.8828904,17.881032 37,17.881032 C30.1171096,17.881032 24.5293739,23.4684082 24.5293739,30.3508557 L24.5293739,34.7812379 C24.5293739,38.492665 26.1649829,41.8160468 28.7457693,44.1038476 L29.945692,45.1679964 L28.3838878,45.5346159 C21.5486133,47.1605971 15.0966476,50.7077596 9.92793257,56.266568 L9.21607361,57.033136 L8.63039701,56.1689615 C4.82111833,50.5458757 2.76172704,43.9014927 2.76172704,36.9976194 C2.76172704,18.1286192 18.1250241,2.77107193 36.9952384,2.77107193 Z M37,20.6497233 C42.3425134,20.6497233 46.6993758,25.0063055 46.6993758,30.3484751 L46.6993758,34.7788573 C46.6993758,40.1186462 42.3448942,44.4752284 37.0047616,44.4776091 L37,44.4776091 C31.6574866,44.4776091 27.3006242,40.1210269 27.3006242,34.7788573 L27.3006242,30.3484751 C27.3006242,25.0063055 31.6574866,20.6497233 37,20.6497233 Z M37,47.2510616 C46.366064,47.2510616 55.7440319,51.0696178 62.5388328,58.6900656 L63.0316582,59.2423755 L62.5388328,59.7946854 C48.9063767,75.0474842 25.0983849,75.0498649 11.4587864,59.7946854 L10.965961,59.2423755 L11.4587864,58.6900656 C18.2535873,51.0672372 27.633936,47.2510616 37.0023808,47.2510616 L37,47.2510616 Z" id="Shape"></path>
                </g>
            </g>
        </g>
    </g>
</svg>