<?xml version="1.0" encoding="UTF-8"?>
<svg width="63px" height="82px" viewBox="0 0 63 82" version="1.1" xmlns="http://www.w3.org/2000/svg" xmlns:xlink="http://www.w3.org/1999/xlink">
    <!-- Generator: Sketch 58 (84663) - https://sketch.com -->
    <title>noun_guarantee_1524772</title>
    <desc>Created with Sketch.</desc>
    <g id="✅-Klantenservice" stroke="none" stroke-width="1" fill="none" fill-rule="evenodd">
        <g id="Klantenservice" transform="translate(-1055.000000, -743.000000)" fill="#000000" fill-rule="nonzero">
            <g id="FAQ-blok" transform="translate(0.000000, 489.000000)">
                <g id="noun_guarantee_1524772" transform="translate(1055.000000, 254.000000)">
                    <g id="Group">
                        <path d="M1.36956522,82 L61.6304348,82 C62.3868248,82 63,81.3881225 63,80.6333333 L63,1.36666667 C63,0.611877509 62.3868248,0 61.6304348,0 L1.36956522,0 C0.613175234,0 -1.42108547e-14,0.611877509 -1.42108547e-14,1.36666667 L-1.42108547e-14,80.6333333 C-1.42108547e-14,81.3881225 0.613175234,82 1.36956522,82 Z M2.73913043,2.73333333 L60.2608696,2.73333333 L60.2608696,79.2666667 L2.73913043,79.2666667 L2.73913043,2.73333333 Z" id="Shape"></path>
                        <path d="M46.5652174,43.7333285 C41.9140986,43.7290007 37.7680381,46.6579745 36.2266646,51.0369776 C34.6852911,55.4159806 36.085174,60.2888273 39.7173913,63.1878333 L39.7173913,75.1666667 C39.7173913,75.6843218 40.0104815,76.1575481 40.4744683,76.3890505 C40.9384552,76.6205529 41.4936932,76.5705931 41.9086957,76.26 L46.5652174,72.775 L51.2217391,76.26 C51.6367416,76.5705931 52.1919796,76.6205529 52.6559664,76.3890505 C53.1199533,76.1575481 53.4130435,75.6843218 53.4130435,75.1666667 L53.4130435,63.1878333 C57.0452607,60.2888273 58.4451437,55.4159806 56.9037702,51.0369776 C55.3623966,46.6579745 51.2163362,43.7290007 46.5652174,43.7333285 Z M50.673913,72.4333333 L47.3869565,69.9733333 C46.9,69.6088889 46.2304348,69.6088889 45.7434783,69.9733333 L42.4565217,72.4333333 L42.4565217,64.7950333 C45.0900799,65.8682591 48.0403548,65.8682591 50.673913,64.7950333 L50.673913,72.4333333 Z M46.5652174,62.8666667 C42.0268775,62.8666667 38.3478261,59.1954016 38.3478261,54.6666667 C38.3478261,50.1379317 42.0268775,46.4666667 46.5652174,46.4666667 C51.1035573,46.4666667 54.7826087,50.1379317 54.7826087,54.6666667 C54.778079,59.193528 51.1016797,62.8621466 46.5652174,62.8666667 Z" id="Shape"></path>
                        <rect id="Rectangle" x="21.9130435" y="8.2" width="19.173913" height="2.73333333"></rect>
                        <rect id="Rectangle" x="26.0217391" y="13.6666667" width="10.9565217" height="2.73333333"></rect>
                        <rect id="Rectangle" x="8.2173913" y="20.5" width="45.1956522" height="2.73333333"></rect>
                        <rect id="Rectangle" x="8.2173913" y="25.9666667" width="45.1956522" height="2.73333333"></rect>
                        <rect id="Rectangle" x="8.2173913" y="31.4333333" width="45.1956522" height="2.73333333"></rect>
                        <rect id="Rectangle" x="8.2173913" y="36.9" width="45.1956522" height="2.73333333"></rect>
                        <rect id="Rectangle" x="8.2173913" y="42.3666667" width="23.2826087" height="2.73333333"></rect>
                        <rect id="Rectangle" x="9.58695652" y="58.7666667" width="8.2173913" height="2.73333333"></rect>
                        <rect id="Rectangle" x="9.58695652" y="64.2333333" width="8.2173913" height="2.73333333"></rect>
                        <rect id="Rectangle" x="9.58695652" y="69.7" width="8.2173913" height="2.73333333"></rect>
                    </g>
                </g>
            </g>
        </g>
    </g>
</svg>