<?xml version="1.0" encoding="UTF-8"?>
<svg width="63px" height="90px" viewBox="0 0 63 90" version="1.1" xmlns="http://www.w3.org/2000/svg" xmlns:xlink="http://www.w3.org/1999/xlink">
    <!-- Generator: Sketch 58 (84663) - https://sketch.com -->
    <title>noun_payment_1938247</title>
    <desc>Created with Sketch.</desc>
    <g id="✅-Klantenservice" stroke="none" stroke-width="1" fill="none" fill-rule="evenodd">
        <g id="Klantenservice" transform="translate(-621.000000, -735.000000)" fill="#000000" fill-rule="nonzero">
            <g id="FAQ-blok" transform="translate(0.000000, 489.000000)">
                <g id="noun_payment_1938247" transform="translate(621.000000, 246.000000)">
                    <g id="Group">
                        <path d="M37.5,0 L7.5,0 C3.35992027,0.0049591745 0.0049591745,3.35992027 -3.55271368e-15,7.5 L-3.55271368e-15,61.5 C0.0049591745,65.6400797 3.35992027,68.9950408 7.5,69 L21,69 L21,72.9495 C21.0115707,82.3614342 28.6385658,89.9884293 38.0505,90 L61.5,90 C62.3284271,90 63,89.3284271 63,88.5 L63,50.262 C62.9951939,46.5160905 61.7208675,42.8824098 59.385,39.954 L45,21.972 L45,7.5 C44.9950408,3.35992027 41.6400797,0.0049591745 37.5,0 Z M37.5,3 C39.9852814,3 42,5.01471863 42,7.5 L42,46.842 L36,40.467 L36,3 L37.5,3 Z M33,37.2795 L30.4335,34.5525 C29.8760844,33.9714434 29.2218298,33.4917921 28.5,33.135 L28.5,3 L33,3 L33,37.2795 Z M3,61.5 L3,7.5 C3,5.01471863 5.01471863,3 7.5,3 L25.5,3 L25.5,32.373 L25.4865,32.373 C23.6043725,32.3107288 21.7839611,33.048704 20.4765,34.404 C17.9451592,36.9630163 17.7762278,41.0277657 20.0865,43.788 L25.5,50.1855 L25.5,66 L7.5,66 C5.01471863,66 3,63.9852814 3,61.5 Z M33.15,66 L28.5,66 L28.5,53.7315 L33,59.049 L33,63.684 C33.0045627,64.4582727 33.0546492,65.2316073 33.15,66 Z M57.0405,41.829 C58.9533012,44.2238655 59.9967053,47.1970064 60,50.262 L60,87 L38.0505,87 C30.2943924,86.9909077 24.0090923,80.7056076 24,72.9495 L24,69 L33.7425,69 C35.4552633,75.1590234 39.9956607,80.1360296 45.972,82.4055 L47.022,79.5945 C40.4054381,77.0880849 36.0212056,70.7593486 36,63.684 L36,58.5 C36.0002779,58.145305 35.8748552,57.8019869 35.646,57.531 L22.377,41.85 C21.0654367,40.283464 21.160947,37.9762728 22.5975,36.5235 C23.3432379,35.7558162 24.3777723,35.3376465 25.4475,35.3715 C26.5127528,35.3833769 27.5267811,35.8305032 28.254,36.609 L48.4125,58.029 L50.5995,55.971 L45,50.0295 L45,26.7795 L57.0405,41.829 Z" id="Shape"></path>
                        <rect id="Rectangle" x="7.5" y="7.5" width="3" height="19.5"></rect>
                        <rect id="Rectangle" x="15" y="7.5" width="3" height="12"></rect>
                        <path d="M18,49.5 L9,49.5 C8.17157288,49.5 7.5,50.1715729 7.5,51 L7.5,60 C7.5,60.8284271 8.17157288,61.5 9,61.5 L18,61.5 C18.8284271,61.5 19.5,60.8284271 19.5,60 L19.5,51 C19.5,50.1715729 18.8284271,49.5 18,49.5 Z M16.5,58.5 L10.5,58.5 L10.5,52.5 L16.5,52.5 L16.5,58.5 Z" id="Shape"></path>
                    </g>
                </g>
            </g>
        </g>
    </g>
</svg>