<?xml version="1.0" encoding="UTF-8"?>
<svg width="68px" height="100px" viewBox="0 0 68 100" version="1.1" xmlns="http://www.w3.org/2000/svg" xmlns:xlink="http://www.w3.org/1999/xlink">
    <!-- Generator: Sketch 58 (84663) - https://sketch.com -->
    <title>noun_cleaning_2663043</title>
    <desc>Created with Sketch.</desc>
    <g id="✅-Klantenservice" stroke="none" stroke-width="1" fill="none" fill-rule="evenodd">
        <g id="Klantenservice" transform="translate(-188.000000, -1044.000000)" fill="#000000" fill-rule="nonzero">
            <g id="FAQ-blok" transform="translate(0.000000, 489.000000)">
                <g id="noun_cleaning_2663043" transform="translate(188.000000, 555.000000)">
                    <path d="M22.578,0.0058594 C22.41294,0.0085794 22.24691,0.0372034 22.08191,0.0917974 C21.20211,0.3825974 20.72491,1.3310974 21.01551,2.2108974 L38.41751,54.8418974 L1.67751,54.8418974 C0.75073,54.8419004 -0.00019,55.5930774 -0.00019,56.5195974 L-0.00019,82.2105974 C-0.00019,82.7118974 0.22414,83.1867574 0.61114,83.5054974 C0.91403,83.7549174 1.29167,83.8883074 1.67754,83.8883074 C1.78469,83.8883074 1.89288,83.8781374 1.99981,83.8570574 L3.10331,83.6402574 L4.81031,98.5072574 C4.90762,99.3543974 5.62382,99.9935574 6.47631,99.9935574 L34.07431,99.9935574 C34.92704,99.9935574 35.64521,99.3543674 35.74231,98.5072574 L36.99431,87.5972574 C37.00391,87.5953574 37.014016,87.5953514 37.023607,87.5933514 C41.042107,86.7835714 43.470607,84.9483514 44.242407,82.1382514 C45.169407,78.7637514 43.460107,74.2360514 39.166207,68.6732514 L40.152537,60.0853514 L52.113537,96.2553514 L41.781537,96.2553514 C40.854767,96.2553514 40.103837,97.0065414 40.103837,97.9330514 C40.103837,98.8595914 40.854797,99.6107514 41.781537,99.6107514 L66.322537,99.6107514 C67.249317,99.6107514 68.000237,98.8595614 68.000237,97.9330514 C68.000237,97.0065014 67.249277,96.2553514 66.322537,96.2553514 L55.648537,96.2553514 L24.201537,1.1573514 C23.965257,0.4425114 23.293737,-0.0078486 22.578537,0.00478144973 L22.578,0.0058594 Z M14.5077,35.1348594 C14.25614,35.1548494 14.00261,35.2365794 13.76161,35.3907194 C13.08895,35.8208894 12.80614,36.7063194 13.11708,37.4454194 C13.38954,38.0896594 14.04508,38.5161194 14.74798,38.4806194 C15.44838,38.4450594 16.06458,37.9611394 16.26948,37.2911194 C16.63226,36.1044194 15.59784,35.0481194 14.50778,35.1349194 L14.5077,35.1348594 Z M22.9276,35.9375894 C19.6815,35.9375894 17.0409,38.5781894 17.0409,41.8242894 C17.0409,45.0703894 19.6815,47.7109894 22.9276,47.7109894 C26.1739,47.7109894 28.8143,45.0702894 28.8143,41.8242894 C28.8143,38.5781894 26.1737,35.9375894 22.9276,35.9375894 Z M22.9276,39.2930894 C24.3235,39.2930894 25.4588,40.4284894 25.4588,41.8242894 C25.4588,43.2201894 24.3234,44.3554894 22.9276,44.3554894 C21.5317,44.3554894 20.3964,43.2200894 20.3964,41.8242894 C20.3964,40.4283894 21.5318,39.2930894 22.9276,39.2930894 Z M9.0586,44.6719894 C6.6169,44.6719894 4.6309,46.6580894 4.6309,49.0996894 C4.6309,51.5413894 6.617,53.5273894 9.0586,53.5273894 C11.5003,53.5273894 13.4863,51.5412894 13.4863,49.0996894 C13.4863,46.6579894 11.5002,44.6719894 9.0586,44.6719894 Z M9.0586,48.0274894 C9.65028,48.0274894 10.1309,48.5082994 10.1309,49.0997894 C10.1309,49.6912394 9.65031,50.1720894 9.0586,50.1720894 C8.46714,50.1720894 7.9863,49.6912694 7.9863,49.0997894 C7.9863,48.5083294 8.46711,48.0274894 9.0586,48.0274894 Z M3.3555,58.1973894 L17.6385,58.1973894 L17.6385,77.3794894 L3.3555,80.1743894 L3.3555,58.1973894 L3.3555,58.1973894 Z M38.5915,73.6774894 C40.4343,76.5817894 41.5319,79.3353894 41.0056,81.2497894 C40.65305,82.5324894 39.4405,83.4722894 37.4001,84.0524894 L38.5915,73.6774894 Z" id="Shape"></path>
                </g>
            </g>
        </g>
    </g>
</svg>